Coordinates
version=1
nRows=11
nColumns=40
inDegrees=yes

Units are S.I. units (second, meters, Newtons, ...)
If the header above contains a line with 'inDegrees', this indicates whether rotational values are in degrees (yes) or radians (no).

endheader
time	pelvis_tilt	pelvis_list	pelvis_rotation	pelvis_tx	pelvis_ty	pelvis_tz	hip_flexion_r	hip_adduction_r	hip_rotation_r	knee_angle_r	knee_angle_r_beta	ankle_angle_r	subtalar_angle_r	mtp_angle_r	hip_flexion_l	hip_adduction_l	hip_rotation_l	knee_angle_l	knee_angle_l_beta	ankle_angle_l	subtalar_angle_l	mtp_angle_l	lumbar_extension	lumbar_bending	lumbar_rotation	arm_flex_r	arm_add_r	arm_rot_r	elbow_flex_r	pro_sup_r	wrist_flex_r	wrist_dev_r	arm_flex_l	arm_add_l	arm_rot_l	elbow_flex_l	pro_sup_l	wrist_flex_l	wrist_dev_l
      6.05500000	    -37.28025055	      7.37310153	      8.89500419	     -0.46462871	      0.73202468	     -0.93859569	     98.46117987	    -27.27908712	      7.33199086	     84.79973464	      1.48003457	     28.42356814	      0.00000000	      0.00000000	     92.81877842	     -1.13830167	     -7.26440296	     81.10456898	      1.41554177	     28.59053525	      0.00000000	      0.00000000	    -38.24471069	      1.14801999	    -18.01034812	      0.10066252	    -62.85529145	     66.98165529	    109.63042435	     88.00636152	      0.00000000	      0.00000000	     -3.05160358	    -65.08927407	     66.24931874	    103.64688252	     88.07220925	      0.00000000	      0.00000000
      6.06000000	    -40.81974373	      7.14855216	      3.46342320	     -0.47376658	      0.72501361	     -0.92446875	    101.73855651	    -19.26375183	      7.51920763	     83.36515046	      1.45499636	     27.39684745	      0.00000000	      0.00000000	     97.10612666	     -8.00332109	     -6.93961473	     81.65674755	      1.42517910	     27.93734817	      0.00000000	      0.00000000	    -34.09830328	     -3.06212127	    -13.41295858	     -0.17252832	    -62.60344635	     67.39789371	    110.07314261	     87.91626188	      0.00000000	      0.00000000	     -4.01865046	    -66.39687943	     65.90251859	    104.67241350	     88.13226825	      0.00000000	      0.00000000
      6.06500000	    -37.35222383	      7.28588990	      8.86247326	     -0.46367595	      0.73466064	     -0.93839951	     98.08315625	    -27.18555588	      7.12162983	     84.36829412	      1.47250452	     28.56900555	      0.00000000	      0.00000000	     92.55592375	     -1.10035774	     -7.14267219	     80.64132255	      1.40745659	     28.62852630	      0.00000000	      0.00000000	    -37.90357122	      1.17432204	    -18.00158751	      0.43281511	    -62.89859616	     67.22558144	    109.58204089	     87.91401188	      0.00000000	      0.00000000	     -3.02528462	    -64.91079938	     66.29662817	    103.51659610	     88.13162224	      0.00000000	      0.00000000
      6.07000000	    -36.94367696	      7.32675436	      8.65557008	     -0.46205735	      0.73698715	     -0.93772515	     97.31964154	    -27.00070858	      6.97952347	     84.14516900	      1.46861025	     28.62195398	      0.00000000	      0.00000000	     91.88310486	     -1.28067639	     -7.15568846	     80.49344815	      1.40487570	     28.63804406	      0.00000000	      0.00000000	    -38.22625686	      1.04922124	    -17.86906604	      0.66289842	    -62.72236026	     67.42281524	    109.40167252	     87.91073459	      0.00000000	      0.00000000	     -2.87463222	    -64.85293937	     66.34701038	    103.36988842	     88.12834432	      0.00000000	      0.00000000
      6.07500000	    -36.99875829	      7.23902781	      8.77539447	     -0.46158519	      0.73857498	     -0.93798659	     97.11113097	    -27.06001681	      6.92635575	     83.88261727	      1.46402786	     28.63861576	      0.00000000	      0.00000000	     91.75676452	     -1.08700825	     -7.04893715	     80.18878199	      1.39955827	     28.58901539	      0.00000000	      0.00000000	    -37.99693754	      1.18785466	    -17.95820015	      0.74900240	    -62.78667962	     67.47030683	    109.42195870	     87.90929649	      0.00000000	      0.00000000	     -2.85090276	    -64.76320487	     66.41036176	    103.34396513	     88.12934674	      0.00000000	      0.00000000
      6.08000000	    -36.90958708	      7.20656129	      8.76415828	     -0.46072185	      0.74059712	     -0.93787645	     96.71241151	    -27.01795531	      6.80719782	     83.59927128	      1.45908254	     28.56889855	      0.00000000	      0.00000000	     91.43791487	     -1.01051627	     -6.93677816	     79.89015100	      1.39434617	     28.54370906	      0.00000000	      0.00000000	    -37.92222603	      1.20936675	    -17.95133363	      0.88545328	    -62.77025907	     67.51221756	    109.36868066	     87.90643584	      0.00000000	      0.00000000	     -2.79649655	    -64.65509040	     66.45223149	    103.26197553	     88.12764804	      0.00000000	      0.00000000
      6.08500000	    -37.06630900	      6.98200446	      8.99334208	     -0.46062922	      0.74194976	     -0.93845386	     96.58999483	    -27.20662966	      6.58670021	     83.33781413	      1.45451925	     28.64969695	      0.00000000	      0.00000000	     91.49609947	     -0.66905959	     -6.61661904	     79.59465993	      1.38918888	     28.47061867	      0.00000000	      0.00000000	    -37.46563201	      1.53711214	    -18.03081639	      1.11752392	    -62.94528449	     67.78903163	    109.47881894	     87.91016345	      0.00000000	      0.00000000	     -2.66742910	    -64.52155240	     66.61443893	    103.24279378	     88.12865456	      0.00000000	      0.00000000
      6.09000000	    -36.89807221	      6.97854902	      8.84607365	     -0.45924833	      0.74426647	     -0.93798003	     96.03530252	    -27.00688679	      6.49206834	     83.01608037	      1.44890393	     28.57525015	      0.00000000	      0.00000000	     91.04153507	     -0.73607813	     -6.50800638	     79.30250638	      1.38408984	     28.39772998	      0.00000000	      0.00000000	    -37.44811963	      1.45262334	    -17.94855468	      1.20511289	    -62.80050985	     67.82894837	    109.39197361	     87.90592267	      0.00000000	      0.00000000	     -2.69958388	    -64.39407599	     66.68514694	    103.13315524	     88.12947842	      0.00000000	      0.00000000
      6.09500000	    -36.14209636	      6.96127190	      8.98816080	     -0.45702453	      0.74775393	     -0.93831210	     94.80248429	    -27.34676876	      6.15897414	     82.77419114	      1.44468217	     28.73582867	      0.00000000	      0.00000000	     89.93411836	     -0.43004286	     -6.38283285	     79.02207313	      1.37919536	     28.53940739	      0.00000000	      0.00000000	    -38.05416360	      1.72023161	    -18.07675219	      1.60851121	    -62.73566598	     68.03881140	    109.19760358	     87.89821521	      0.00000000	      0.00000000	     -2.41066883	    -64.29712747	     66.74018609	    102.93902742	     88.12420379	      0.00000000	      0.00000000
      6.10000000	    -36.05275737	      6.97583305	      9.03122441	     -0.45593670	      0.75009525	     -0.93855735	     94.36364380	    -27.37040315	      6.11445026	     82.42522070	      1.43859149	     28.73022765	      0.00000000	      0.00000000	     89.55832595	     -0.23184529	     -6.27795952	     78.65709920	      1.37282536	     28.49545063	      0.00000000	      0.00000000	    -37.88684524	      1.75325035	    -18.13700486	      1.69453822	    -62.75046599	     68.07866069	    109.18456442	     87.89359921	      0.00000000	      0.00000000	     -2.37678814	    -64.20396388	     66.75976555	    102.94421138	     88.12325020	      0.00000000	      0.00000000
      6.10500000	    -39.69037447	      6.56415763	      3.65603533	     -0.46511509	      0.74346126	     -0.92439372	     97.89875619	    -19.33446977	      6.74737938	     80.97387103	      1.41326066	     27.59697649	      0.00000000	      0.00000000	     93.95240295	     -6.93770476	     -6.00875911	     79.16114127	      1.38162255	     27.75588552	      0.00000000	      0.00000000	    -33.50229142	     -2.24723778	    -13.52509629	      1.53537714	    -62.58228049	     68.59500305	    109.80914899	     87.87809809	      0.00000000	      0.00000000	     -3.46049403	    -65.56089007	     66.32072667	    104.06415393	     88.11715724	      0.00000000	      0.00000000
